<?xml version="1.0" encoding="UTF-8" standalone="no"?><!DOCTYPE svg PUBLIC "-//W3C//DTD SVG 1.1//EN" "http://www.w3.org/Graphics/SVG/1.1/DTD/svg11.dtd"><svg width="100%" height="100%" viewBox="0 0 100 100" version="1.1" xmlns="http://www.w3.org/2000/svg" xmlns:xlink="http://www.w3.org/1999/xlink" xml:space="preserve" xmlns:serif="http://www.serif.com/" style="fill-rule:evenodd;clip-rule:evenodd;stroke-linejoin:round;stroke-miterlimit:1.41421;"><path id="outter-shape" serif:id="outter shape" d="M90,88.882l0,1.618l-10,0l0,-1l9.191,0l-39.191,-78.382l-39.441,78.882l-0.559,0l0,-1.118l39.441,-78.882l1.118,0c13.333,26.667 26.108,52.215 39.441,78.882Z" style="fill-rule:nonzero;"/><path id="_4th-inner-shape" serif:id="4th inner shape" d="M65.447,40.224l-24.888,49.776l-1.118,0l25.112,-50.224c0.298,0.149 0.596,0.299 0.894,0.448Z" style="fill-rule:nonzero;"/><path id="_3rd-inner-shape" serif:id="3rd inner shape" d="M70.447,50.224l-19.888,39.776l-1.118,0l20.112,-40.224c0.298,0.149 0.596,0.299 0.894,0.448Z" style="fill-rule:nonzero;"/><path id="_2nd-inner-shape" serif:id="2nd inner shape" d="M60.447,30.224l-29.888,59.776l-1.118,0l30.112,-60.224c0.298,0.149 0.596,0.299 0.894,0.448Z" style="fill-rule:nonzero;"/><path id="_1st-inner-shape" serif:id="1st inner shape" d="M55.447,20.224l-34.888,69.776l-1.118,0l35.112,-70.224c0.298,0.149 0.596,0.299 0.894,0.448Z" style="fill-rule:nonzero;"/></svg>