<?xml version="1.0" encoding="UTF-8" standalone="no"?>
<!DOCTYPE svg PUBLIC "-//W3C//DTD SVG 1.1//EN"
 "http://www.w3.org/Graphics/SVG/1.1/DTD/svg11.dtd">
<!-- Generated by graphviz version 2.40.1 (20161225.0304)
 -->
<!-- Title: dependencies Pages: 1 -->
<svg width="1141pt" height="211pt"
 viewBox="0.00 0.00 1141.00 211.00" xmlns="http://www.w3.org/2000/svg" xmlns:xlink="http://www.w3.org/1999/xlink">
<g id="graph0" class="graph" transform="scale(1 1) rotate(0) translate(4 207)">
<title>dependencies</title>
<polygon fill="#ffffff" stroke="transparent" points="-4,4 -4,-207 1137,-207 1137,4 -4,4"/>
<text text-anchor="start" x="545.5091" y="-42.4" font-family="sans-serif" font-weight="bold" font-size="14.00" fill="#000000">Legend</text>
<polygon fill="#ffffb3" stroke="transparent" points="332.5,-10 332.5,-30 352.5,-30 352.5,-10 332.5,-10"/>
<text text-anchor="start" x="356.129" y="-15.4" font-family="sans-serif" font-size="14.00" fill="#000000"> &#160;Declarations</text>
<polygon fill="#8dd3c7" stroke="transparent" points="445.5,-10 445.5,-30 465.5,-30 465.5,-10 445.5,-10"/>
<text text-anchor="start" x="469.2251" y="-15.4" font-family="sans-serif" font-size="14.00" fill="#000000"> &#160;Module</text>
<polygon fill="#80b1d3" stroke="transparent" points="531.5,-10 531.5,-30 551.5,-30 551.5,-10 531.5,-10"/>
<text text-anchor="start" x="555.2812" y="-15.4" font-family="sans-serif" font-size="14.00" fill="#000000"> &#160;Bootstrap</text>
<polygon fill="#fdb462" stroke="transparent" points="628.5,-10 628.5,-30 648.5,-30 648.5,-10 628.5,-10"/>
<text text-anchor="start" x="652.1732" y="-15.4" font-family="sans-serif" font-size="14.00" fill="#000000"> &#160;Providers</text>
<polygon fill="#fb8072" stroke="transparent" points="724.5,-10 724.5,-30 744.5,-30 744.5,-10 724.5,-10"/>
<text text-anchor="start" x="748.2258" y="-15.4" font-family="sans-serif" font-size="14.00" fill="#000000"> &#160;Exports</text>
<g id="clust1" class="cluster">
<title>cluster_DataModule</title>
<polygon fill="none" stroke="#000000" stroke-dasharray="1,5" points="8,-70 8,-195 1125,-195 1125,-70 8,-70"/>
</g>
<g id="clust2" class="cluster">
<title>cluster_DataModule_declarations</title>
<polygon fill="none" stroke="#000000" points="325,-78 325,-130 1117,-130 1117,-78 325,-78"/>
</g>
<g id="clust7" class="cluster">
<title>cluster_DataModule_imports</title>
<polygon fill="none" stroke="#000000" points="16,-78 16,-130 317,-130 317,-78 16,-78"/>
</g>
<!-- ResponseDetailComponent -->
<g id="node1" class="node">
<title>ResponseDetailComponent</title>
<polygon fill="#ffffb3" stroke="#000000" points="1108.6951,-122 939.3049,-122 939.3049,-86 1108.6951,-86 1108.6951,-122"/>
<text text-anchor="middle" x="1024" y="-99.8" font-family="Times,serif" font-size="14.00" fill="#000000">ResponseDetailComponent</text>
</g>
<!-- DataModule -->
<g id="node5" class="node">
<title>DataModule</title>
<polygon fill="#8dd3c7" stroke="#000000" points="570.9762,-187 567.9762,-191 546.9762,-191 543.9762,-187 485.0238,-187 485.0238,-151 570.9762,-151 570.9762,-187"/>
<text text-anchor="middle" x="528" y="-164.8" font-family="Times,serif" font-size="14.00" fill="#000000">DataModule</text>
</g>
<!-- ResponseDetailComponent&#45;&gt;DataModule -->
<g id="edge1" class="edge">
<title>ResponseDetailComponent&#45;&gt;DataModule</title>
<path fill="none" stroke="#000000" d="M1024,-122.2843C1024,-143.3211 1024,-175 1024,-175 1024,-175 581.1491,-175 581.1491,-175"/>
<polygon fill="#000000" stroke="#000000" points="581.1491,-171.5001 571.1491,-175 581.149,-178.5001 581.1491,-171.5001"/>
</g>
<!-- ResponseThumbnailComponent -->
<g id="node2" class="node">
<title>ResponseThumbnailComponent</title>
<polygon fill="#ffffb3" stroke="#000000" points="921.4269,-122 724.5731,-122 724.5731,-86 921.4269,-86 921.4269,-122"/>
<text text-anchor="middle" x="823" y="-99.8" font-family="Times,serif" font-size="14.00" fill="#000000">ResponseThumbnailComponent</text>
</g>
<!-- ResponseThumbnailComponent&#45;&gt;DataModule -->
<g id="edge2" class="edge">
<title>ResponseThumbnailComponent&#45;&gt;DataModule</title>
<path fill="none" stroke="#000000" d="M823,-122.0225C823,-139.3734 823,-163 823,-163 823,-163 581.2115,-163 581.2115,-163"/>
<polygon fill="#000000" stroke="#000000" points="581.2115,-159.5001 571.2115,-163 581.2114,-166.5001 581.2115,-159.5001"/>
</g>
<!-- ResponsesListComponent -->
<g id="node3" class="node">
<title>ResponsesListComponent</title>
<polygon fill="#ffffb3" stroke="#000000" points="707.2105,-122 544.7895,-122 544.7895,-86 707.2105,-86 707.2105,-122"/>
<text text-anchor="middle" x="626" y="-99.8" font-family="Times,serif" font-size="14.00" fill="#000000">ResponsesListComponent</text>
</g>
<!-- ResponsesListComponent&#45;&gt;DataModule -->
<g id="edge3" class="edge">
<title>ResponsesListComponent&#45;&gt;DataModule</title>
<path fill="none" stroke="#000000" d="M557.9415,-122.1061C557.9415,-122.1061 557.9415,-140.991 557.9415,-140.991"/>
<polygon fill="#000000" stroke="#000000" points="554.4415,-140.9909 557.9415,-150.991 561.4415,-140.991 554.4415,-140.9909"/>
</g>
<!-- StepResponseDetailComponent -->
<g id="node4" class="node">
<title>StepResponseDetailComponent</title>
<polygon fill="#ffffb3" stroke="#000000" points="527.0828,-122 332.9172,-122 332.9172,-86 527.0828,-86 527.0828,-122"/>
<text text-anchor="middle" x="430" y="-99.8" font-family="Times,serif" font-size="14.00" fill="#000000">StepResponseDetailComponent</text>
</g>
<!-- StepResponseDetailComponent&#45;&gt;DataModule -->
<g id="edge4" class="edge">
<title>StepResponseDetailComponent&#45;&gt;DataModule</title>
<path fill="none" stroke="#000000" d="M506.0267,-122.1061C506.0267,-122.1061 506.0267,-140.991 506.0267,-140.991"/>
<polygon fill="#000000" stroke="#000000" points="502.5267,-140.9909 506.0267,-150.991 509.5267,-140.991 502.5267,-140.9909"/>
</g>
<!-- AppCommonModule -->
<g id="node6" class="node">
<title>AppCommonModule</title>
<polygon fill="#8dd3c7" stroke="#000000" points="308.7744,-122 305.7744,-126 284.7744,-126 281.7744,-122 173.2256,-122 173.2256,-86 308.7744,-86 308.7744,-122"/>
<text text-anchor="middle" x="241" y="-99.8" font-family="Times,serif" font-size="14.00" fill="#000000">AppCommonModule</text>
</g>
<!-- AppCommonModule&#45;&gt;DataModule -->
<g id="edge5" class="edge">
<title>AppCommonModule&#45;&gt;DataModule</title>
<path fill="none" stroke="#000000" d="M241,-122.0225C241,-139.3734 241,-163 241,-163 241,-163 474.7225,-163 474.7225,-163"/>
<polygon fill="#000000" stroke="#000000" points="474.7225,-166.5001 484.7225,-163 474.7224,-159.5001 474.7225,-166.5001"/>
</g>
<!-- DataRoutingModule -->
<g id="node7" class="node">
<title>DataRoutingModule</title>
<polygon fill="#8dd3c7" stroke="#000000" points="155.594,-122 152.594,-126 131.594,-126 128.594,-122 24.406,-122 24.406,-86 155.594,-86 155.594,-122"/>
<text text-anchor="middle" x="90" y="-99.8" font-family="Times,serif" font-size="14.00" fill="#000000">DataRoutingModule</text>
</g>
<!-- DataRoutingModule&#45;&gt;DataModule -->
<g id="edge6" class="edge">
<title>DataRoutingModule&#45;&gt;DataModule</title>
<path fill="none" stroke="#000000" d="M90,-122.2843C90,-143.3211 90,-175 90,-175 90,-175 474.8042,-175 474.8042,-175"/>
<polygon fill="#000000" stroke="#000000" points="474.8042,-178.5001 484.8042,-175 474.8041,-171.5001 474.8042,-178.5001"/>
</g>
</g>
</svg>
