<?xml version="1.0" encoding="UTF-8" standalone="no"?>
<!DOCTYPE svg PUBLIC "-//W3C//DTD SVG 1.1//EN"
 "http://www.w3.org/Graphics/SVG/1.1/DTD/svg11.dtd">
<!-- Generated by graphviz version 2.40.1 (20161225.0304)
 -->
<!-- Title: dependencies Pages: 1 -->
<svg width="2899pt" height="211pt"
 viewBox="0.00 0.00 2899.00 211.00" xmlns="http://www.w3.org/2000/svg" xmlns:xlink="http://www.w3.org/1999/xlink">
<g id="graph0" class="graph" transform="scale(1 1) rotate(0) translate(4 207)">
<title>dependencies</title>
<polygon fill="#ffffff" stroke="transparent" points="-4,4 -4,-207 2895,-207 2895,4 -4,4"/>
<text text-anchor="start" x="1424.5091" y="-42.4" font-family="sans-serif" font-weight="bold" font-size="14.00" fill="#000000">Legend</text>
<polygon fill="#ffffb3" stroke="transparent" points="1211.5,-10 1211.5,-30 1231.5,-30 1231.5,-10 1211.5,-10"/>
<text text-anchor="start" x="1235.129" y="-15.4" font-family="sans-serif" font-size="14.00" fill="#000000"> &#160;Declarations</text>
<polygon fill="#8dd3c7" stroke="transparent" points="1324.5,-10 1324.5,-30 1344.5,-30 1344.5,-10 1324.5,-10"/>
<text text-anchor="start" x="1348.2251" y="-15.4" font-family="sans-serif" font-size="14.00" fill="#000000"> &#160;Module</text>
<polygon fill="#80b1d3" stroke="transparent" points="1410.5,-10 1410.5,-30 1430.5,-30 1430.5,-10 1410.5,-10"/>
<text text-anchor="start" x="1434.2812" y="-15.4" font-family="sans-serif" font-size="14.00" fill="#000000"> &#160;Bootstrap</text>
<polygon fill="#fdb462" stroke="transparent" points="1507.5,-10 1507.5,-30 1527.5,-30 1527.5,-10 1507.5,-10"/>
<text text-anchor="start" x="1531.1732" y="-15.4" font-family="sans-serif" font-size="14.00" fill="#000000"> &#160;Providers</text>
<polygon fill="#fb8072" stroke="transparent" points="1603.5,-10 1603.5,-30 1623.5,-30 1623.5,-10 1603.5,-10"/>
<text text-anchor="start" x="1627.2258" y="-15.4" font-family="sans-serif" font-size="14.00" fill="#000000"> &#160;Exports</text>
<g id="clust1" class="cluster">
<title>cluster_SequenceResponseModule</title>
<polygon fill="none" stroke="#000000" stroke-dasharray="1,5" points="8,-70 8,-195 2883,-195 2883,-70 8,-70"/>
</g>
<g id="clust2" class="cluster">
<title>cluster_SequenceResponseModule_declarations</title>
<polygon fill="none" stroke="#000000" points="696,-78 696,-130 2875,-130 2875,-78 696,-78"/>
</g>
<g id="clust16" class="cluster">
<title>cluster_SequenceResponseModule_imports</title>
<polygon fill="none" stroke="#000000" points="194,-78 194,-130 688,-130 688,-78 194,-78"/>
</g>
<g id="clust19" class="cluster">
<title>cluster_SequenceResponseModule_providers</title>
<polygon fill="none" stroke="#000000" points="16,-78 16,-130 186,-130 186,-78 16,-78"/>
</g>
<!-- AssetViewerComponent -->
<g id="node1" class="node">
<title>AssetViewerComponent</title>
<polygon fill="#ffffb3" stroke="#000000" points="2866.6275,-122 2713.3725,-122 2713.3725,-86 2866.6275,-86 2866.6275,-122"/>
<text text-anchor="middle" x="2790" y="-99.8" font-family="Times,serif" font-size="14.00" fill="#000000">AssetViewerComponent</text>
</g>
<!-- SequenceResponseModule -->
<g id="node14" class="node">
<title>SequenceResponseModule</title>
<polygon fill="#8dd3c7" stroke="#000000" points="1582.3459,-187 1579.3459,-191 1558.3459,-191 1555.3459,-187 1415.6541,-187 1415.6541,-151 1582.3459,-151 1582.3459,-187"/>
<text text-anchor="middle" x="1499" y="-164.8" font-family="Times,serif" font-size="14.00" fill="#000000">SequenceResponseModule</text>
</g>
<!-- AssetViewerComponent&#45;&gt;SequenceResponseModule -->
<g id="edge1" class="edge">
<title>AssetViewerComponent&#45;&gt;SequenceResponseModule</title>
<path fill="none" stroke="#000000" d="M2790,-122.3228C2790,-145.6602 2790,-183 2790,-183 2790,-183 1592.7114,-183 1592.7114,-183"/>
<polygon fill="#000000" stroke="#000000" points="1592.7114,-179.5001 1582.7114,-183 1592.7114,-186.5001 1592.7114,-179.5001"/>
</g>
<!-- CheckBoxesComponent -->
<g id="node2" class="node">
<title>CheckBoxesComponent</title>
<polygon fill="#ffffb3" stroke="#000000" points="2695.094,-122 2542.906,-122 2542.906,-86 2695.094,-86 2695.094,-122"/>
<text text-anchor="middle" x="2619" y="-99.8" font-family="Times,serif" font-size="14.00" fill="#000000">CheckBoxesComponent</text>
</g>
<!-- CheckBoxesComponent&#45;&gt;SequenceResponseModule -->
<g id="edge2" class="edge">
<title>CheckBoxesComponent&#45;&gt;SequenceResponseModule</title>
<path fill="none" stroke="#000000" d="M2619,-122.1554C2619,-144.3519 2619,-179 2619,-179 2619,-179 1592.724,-179 1592.724,-179"/>
<polygon fill="#000000" stroke="#000000" points="1592.724,-175.5001 1582.724,-179 1592.724,-182.5001 1592.724,-175.5001"/>
</g>
<!-- InputComponent -->
<g id="node3" class="node">
<title>InputComponent</title>
<polygon fill="#ffffb3" stroke="#000000" points="2525.3837,-122 2414.6163,-122 2414.6163,-86 2525.3837,-86 2525.3837,-122"/>
<text text-anchor="middle" x="2470" y="-99.8" font-family="Times,serif" font-size="14.00" fill="#000000">InputComponent</text>
</g>
<!-- InputComponent&#45;&gt;SequenceResponseModule -->
<g id="edge3" class="edge">
<title>InputComponent&#45;&gt;SequenceResponseModule</title>
<path fill="none" stroke="#000000" d="M2470,-122.2843C2470,-143.3211 2470,-175 2470,-175 2470,-175 1592.6273,-175 1592.6273,-175"/>
<polygon fill="#000000" stroke="#000000" points="1592.6274,-171.5001 1582.6273,-175 1592.6273,-178.5001 1592.6274,-171.5001"/>
</g>
<!-- LargeTextComponent -->
<g id="node4" class="node">
<title>LargeTextComponent</title>
<polygon fill="#ffffb3" stroke="#000000" points="2396.6331,-122 2257.3669,-122 2257.3669,-86 2396.6331,-86 2396.6331,-122"/>
<text text-anchor="middle" x="2327" y="-99.8" font-family="Times,serif" font-size="14.00" fill="#000000">LargeTextComponent</text>
</g>
<!-- LargeTextComponent&#45;&gt;SequenceResponseModule -->
<g id="edge4" class="edge">
<title>LargeTextComponent&#45;&gt;SequenceResponseModule</title>
<path fill="none" stroke="#000000" d="M2327,-122.308C2327,-142.1455 2327,-171 2327,-171 2327,-171 1592.5659,-171 1592.5659,-171"/>
<polygon fill="#000000" stroke="#000000" points="1592.5659,-167.5001 1582.5659,-171 1592.5659,-174.5001 1592.5659,-167.5001"/>
</g>
<!-- ListInputComponent -->
<g id="node5" class="node">
<title>ListInputComponent</title>
<polygon fill="#ffffb3" stroke="#000000" points="2239.1624,-122 2106.8376,-122 2106.8376,-86 2239.1624,-86 2239.1624,-122"/>
<text text-anchor="middle" x="2173" y="-99.8" font-family="Times,serif" font-size="14.00" fill="#000000">ListInputComponent</text>
</g>
<!-- ListInputComponent&#45;&gt;SequenceResponseModule -->
<g id="edge5" class="edge">
<title>ListInputComponent&#45;&gt;SequenceResponseModule</title>
<path fill="none" stroke="#000000" d="M2173,-122.2222C2173,-140.8285 2173,-167 2173,-167 2173,-167 1592.6604,-167 1592.6604,-167"/>
<polygon fill="#000000" stroke="#000000" points="1592.6605,-163.5001 1582.6604,-167 1592.6604,-170.5001 1592.6605,-163.5001"/>
</g>
<!-- QuestionExecutorComponent -->
<g id="node6" class="node">
<title>QuestionExecutorComponent</title>
<polygon fill="#ffffb3" stroke="#000000" points="2088.4129,-122 1905.5871,-122 1905.5871,-86 2088.4129,-86 2088.4129,-122"/>
<text text-anchor="middle" x="1997" y="-99.8" font-family="Times,serif" font-size="14.00" fill="#000000">QuestionExecutorComponent</text>
</g>
<!-- QuestionExecutorComponent&#45;&gt;SequenceResponseModule -->
<g id="edge6" class="edge">
<title>QuestionExecutorComponent&#45;&gt;SequenceResponseModule</title>
<path fill="none" stroke="#000000" d="M1997,-122.0225C1997,-139.3734 1997,-163 1997,-163 1997,-163 1592.354,-163 1592.354,-163"/>
<polygon fill="#000000" stroke="#000000" points="1592.354,-159.5001 1582.354,-163 1592.354,-166.5001 1592.354,-159.5001"/>
</g>
<!-- RadioButtonsComponent -->
<g id="node7" class="node">
<title>RadioButtonsComponent</title>
<polygon fill="#ffffb3" stroke="#000000" points="1888.337,-122 1729.663,-122 1729.663,-86 1888.337,-86 1888.337,-122"/>
<text text-anchor="middle" x="1809" y="-99.8" font-family="Times,serif" font-size="14.00" fill="#000000">RadioButtonsComponent</text>
</g>
<!-- RadioButtonsComponent&#45;&gt;SequenceResponseModule -->
<g id="edge7" class="edge">
<title>RadioButtonsComponent&#45;&gt;SequenceResponseModule</title>
<path fill="none" stroke="#000000" d="M1809,-122.0091C1809,-138.0494 1809,-159 1809,-159 1809,-159 1592.4821,-159 1592.4821,-159"/>
<polygon fill="#000000" stroke="#000000" points="1592.4821,-155.5001 1582.4821,-159 1592.4821,-162.5001 1592.4821,-155.5001"/>
</g>
<!-- SelectComponent -->
<g id="node8" class="node">
<title>SelectComponent</title>
<polygon fill="#ffffb3" stroke="#000000" points="1711.5409,-122 1596.4591,-122 1596.4591,-86 1711.5409,-86 1711.5409,-122"/>
<text text-anchor="middle" x="1654" y="-99.8" font-family="Times,serif" font-size="14.00" fill="#000000">SelectComponent</text>
</g>
<!-- SelectComponent&#45;&gt;SequenceResponseModule -->
<g id="edge8" class="edge">
<title>SelectComponent&#45;&gt;SequenceResponseModule</title>
<path fill="none" stroke="#000000" d="M1654,-122.1243C1654,-136.7832 1654,-155 1654,-155 1654,-155 1592.3982,-155 1592.3982,-155"/>
<polygon fill="#000000" stroke="#000000" points="1592.3983,-151.5001 1582.3982,-155 1592.3982,-158.5001 1592.3983,-151.5001"/>
</g>
<!-- StaticContentComponent -->
<g id="node9" class="node">
<title>StaticContentComponent</title>
<polygon fill="#ffffb3" stroke="#000000" points="1577.549,-122 1420.451,-122 1420.451,-86 1577.549,-86 1577.549,-122"/>
<text text-anchor="middle" x="1499" y="-99.8" font-family="Times,serif" font-size="14.00" fill="#000000">StaticContentComponent</text>
</g>
<!-- StaticContentComponent&#45;&gt;SequenceResponseModule -->
<g id="edge9" class="edge">
<title>StaticContentComponent&#45;&gt;SequenceResponseModule</title>
<path fill="none" stroke="#000000" d="M1499,-122.1061C1499,-122.1061 1499,-140.991 1499,-140.991"/>
<polygon fill="#000000" stroke="#000000" points="1495.5001,-140.9909 1499,-150.991 1502.5001,-140.991 1495.5001,-140.9909"/>
</g>
<!-- StepExecutorComponent -->
<g id="node10" class="node">
<title>StepExecutorComponent</title>
<polygon fill="#ffffb3" stroke="#000000" points="1402.2534,-122 1245.7466,-122 1245.7466,-86 1402.2534,-86 1402.2534,-122"/>
<text text-anchor="middle" x="1324" y="-99.8" font-family="Times,serif" font-size="14.00" fill="#000000">StepExecutorComponent</text>
</g>
<!-- StepExecutorComponent&#45;&gt;SequenceResponseModule -->
<g id="edge10" class="edge">
<title>StepExecutorComponent&#45;&gt;SequenceResponseModule</title>
<path fill="none" stroke="#000000" d="M1324,-122.1243C1324,-136.7832 1324,-155 1324,-155 1324,-155 1405.6002,-155 1405.6002,-155"/>
<polygon fill="#000000" stroke="#000000" points="1405.6003,-158.5001 1415.6002,-155 1405.6002,-151.5001 1405.6003,-158.5001"/>
</g>
<!-- TaskExecutorComponent -->
<g id="node11" class="node">
<title>TaskExecutorComponent</title>
<polygon fill="#ffffb3" stroke="#000000" points="1227.5772,-122 1068.4228,-122 1068.4228,-86 1227.5772,-86 1227.5772,-122"/>
<text text-anchor="middle" x="1148" y="-99.8" font-family="Times,serif" font-size="14.00" fill="#000000">TaskExecutorComponent</text>
</g>
<!-- TaskExecutorComponent&#45;&gt;SequenceResponseModule -->
<g id="edge11" class="edge">
<title>TaskExecutorComponent&#45;&gt;SequenceResponseModule</title>
<path fill="none" stroke="#000000" d="M1148,-122.0091C1148,-138.0494 1148,-159 1148,-159 1148,-159 1405.3727,-159 1405.3727,-159"/>
<polygon fill="#000000" stroke="#000000" points="1405.3727,-162.5001 1415.3727,-159 1405.3727,-155.5001 1405.3727,-162.5001"/>
</g>
<!-- TopSequenceExecutorComponent -->
<g id="node12" class="node">
<title>TopSequenceExecutorComponent</title>
<polygon fill="#ffffb3" stroke="#000000" points="1050.059,-122 841.941,-122 841.941,-86 1050.059,-86 1050.059,-122"/>
<text text-anchor="middle" x="946" y="-99.8" font-family="Times,serif" font-size="14.00" fill="#000000">TopSequenceExecutorComponent</text>
</g>
<!-- TopSequenceExecutorComponent&#45;&gt;SequenceResponseModule -->
<g id="edge12" class="edge">
<title>TopSequenceExecutorComponent&#45;&gt;SequenceResponseModule</title>
<path fill="none" stroke="#000000" d="M946,-122.0225C946,-139.3734 946,-163 946,-163 946,-163 1405.6116,-163 1405.6116,-163"/>
<polygon fill="#000000" stroke="#000000" points="1405.6116,-166.5001 1415.6116,-163 1405.6115,-159.5001 1405.6116,-166.5001"/>
</g>
<!-- YesNoComponent -->
<g id="node13" class="node">
<title>YesNoComponent</title>
<polygon fill="#ffffb3" stroke="#000000" points="824.205,-122 703.795,-122 703.795,-86 824.205,-86 824.205,-122"/>
<text text-anchor="middle" x="764" y="-99.8" font-family="Times,serif" font-size="14.00" fill="#000000">YesNoComponent</text>
</g>
<!-- YesNoComponent&#45;&gt;SequenceResponseModule -->
<g id="edge13" class="edge">
<title>YesNoComponent&#45;&gt;SequenceResponseModule</title>
<path fill="none" stroke="#000000" d="M764,-122.2222C764,-140.8285 764,-167 764,-167 764,-167 1405.4017,-167 1405.4017,-167"/>
<polygon fill="#000000" stroke="#000000" points="1405.4018,-170.5001 1415.4017,-167 1405.4017,-163.5001 1405.4018,-170.5001"/>
</g>
<!-- AppCommonModule -->
<g id="node15" class="node">
<title>AppCommonModule</title>
<polygon fill="#8dd3c7" stroke="#000000" points="679.7744,-122 676.7744,-126 655.7744,-126 652.7744,-122 544.2256,-122 544.2256,-86 679.7744,-86 679.7744,-122"/>
<text text-anchor="middle" x="612" y="-99.8" font-family="Times,serif" font-size="14.00" fill="#000000">AppCommonModule</text>
</g>
<!-- AppCommonModule&#45;&gt;SequenceResponseModule -->
<g id="edge14" class="edge">
<title>AppCommonModule&#45;&gt;SequenceResponseModule</title>
<path fill="none" stroke="#000000" d="M612,-122.308C612,-142.1455 612,-171 612,-171 612,-171 1405.5532,-171 1405.5532,-171"/>
<polygon fill="#000000" stroke="#000000" points="1405.5532,-174.5001 1415.5532,-171 1405.5532,-167.5001 1405.5532,-174.5001"/>
</g>
<!-- InputsModule -->
<g id="node16" class="node">
<title>InputsModule</title>
<polygon fill="#8dd3c7" stroke="#000000" points="526.0467,-122 523.0467,-126 502.0467,-126 499.0467,-122 431.9533,-122 431.9533,-86 526.0467,-86 526.0467,-122"/>
<text text-anchor="middle" x="479" y="-99.8" font-family="Times,serif" font-size="14.00" fill="#000000">InputsModule</text>
</g>
<!-- InputsModule&#45;&gt;SequenceResponseModule -->
<g id="edge15" class="edge">
<title>InputsModule&#45;&gt;SequenceResponseModule</title>
<path fill="none" stroke="#000000" d="M479,-122.2843C479,-143.3211 479,-175 479,-175 479,-175 1405.5291,-175 1405.5291,-175"/>
<polygon fill="#000000" stroke="#000000" points="1405.5292,-178.5001 1415.5291,-175 1405.5291,-171.5001 1405.5292,-178.5001"/>
</g>
<!-- SequenceResponseRoutingModule -->
<g id="node17" class="node">
<title>SequenceResponseRoutingModule</title>
<polygon fill="#8dd3c7" stroke="#000000" points="413.9636,-122 410.9636,-126 389.9636,-126 386.9636,-122 202.0364,-122 202.0364,-86 413.9636,-86 413.9636,-122"/>
<text text-anchor="middle" x="308" y="-99.8" font-family="Times,serif" font-size="14.00" fill="#000000">SequenceResponseRoutingModule</text>
</g>
<!-- SequenceResponseRoutingModule&#45;&gt;SequenceResponseModule -->
<g id="edge16" class="edge">
<title>SequenceResponseRoutingModule&#45;&gt;SequenceResponseModule</title>
<path fill="none" stroke="#000000" d="M308,-122.1554C308,-144.3519 308,-179 308,-179 308,-179 1405.2512,-179 1405.2512,-179"/>
<polygon fill="#000000" stroke="#000000" points="1405.2512,-182.5001 1415.2512,-179 1405.2512,-175.5001 1405.2512,-182.5001"/>
</g>
<!-- ResponseService -->
<g id="node18" class="node">
<title>ResponseService</title>
<ellipse fill="#fdb462" stroke="#000000" cx="101" cy="-104" rx="77.0043" ry="18"/>
<text text-anchor="middle" x="101" y="-99.8" font-family="Times,serif" font-size="14.00" fill="#000000">ResponseService</text>
</g>
<!-- ResponseService&#45;&gt;SequenceResponseModule -->
<g id="edge17" class="edge">
<title>ResponseService&#45;&gt;SequenceResponseModule</title>
<path fill="none" stroke="#000000" d="M101,-122.3228C101,-145.6602 101,-183 101,-183 101,-183 1405.4763,-183 1405.4763,-183"/>
<polygon fill="#000000" stroke="#000000" points="1405.4764,-186.5001 1415.4763,-183 1405.4763,-179.5001 1405.4764,-186.5001"/>
</g>
</g>
</svg>
