<?xml version="1.0" encoding="UTF-8" standalone="no"?>
<!DOCTYPE svg PUBLIC "-//W3C//DTD SVG 1.1//EN"
 "http://www.w3.org/Graphics/SVG/1.1/DTD/svg11.dtd">
<!-- Generated by graphviz version 2.40.1 (20161225.0304)
 -->
<!-- Title: dependencies Pages: 1 -->
<svg width="1378pt" height="284pt"
 viewBox="0.00 0.00 1378.00 284.00" xmlns="http://www.w3.org/2000/svg" xmlns:xlink="http://www.w3.org/1999/xlink">
<g id="graph0" class="graph" transform="scale(1 1) rotate(0) translate(4 280)">
<title>dependencies</title>
<polygon fill="#ffffff" stroke="transparent" points="-4,4 -4,-280 1374,-280 1374,4 -4,4"/>
<text text-anchor="start" x="664.0091" y="-42.4" font-family="sans-serif" font-weight="bold" font-size="14.00" fill="#000000">Legend</text>
<polygon fill="#ffffb3" stroke="transparent" points="451,-10 451,-30 471,-30 471,-10 451,-10"/>
<text text-anchor="start" x="474.629" y="-15.4" font-family="sans-serif" font-size="14.00" fill="#000000"> &#160;Declarations</text>
<polygon fill="#8dd3c7" stroke="transparent" points="564,-10 564,-30 584,-30 584,-10 564,-10"/>
<text text-anchor="start" x="587.7251" y="-15.4" font-family="sans-serif" font-size="14.00" fill="#000000"> &#160;Module</text>
<polygon fill="#80b1d3" stroke="transparent" points="650,-10 650,-30 670,-30 670,-10 650,-10"/>
<text text-anchor="start" x="673.7812" y="-15.4" font-family="sans-serif" font-size="14.00" fill="#000000"> &#160;Bootstrap</text>
<polygon fill="#fdb462" stroke="transparent" points="747,-10 747,-30 767,-30 767,-10 747,-10"/>
<text text-anchor="start" x="770.6732" y="-15.4" font-family="sans-serif" font-size="14.00" fill="#000000"> &#160;Providers</text>
<polygon fill="#fb8072" stroke="transparent" points="843,-10 843,-30 863,-30 863,-10 843,-10"/>
<text text-anchor="start" x="866.7258" y="-15.4" font-family="sans-serif" font-size="14.00" fill="#000000"> &#160;Exports</text>
<g id="clust1" class="cluster">
<title>cluster_AppCommonModule</title>
<polygon fill="none" stroke="#000000" stroke-dasharray="1,5" points="8,-70 8,-268 1362,-268 1362,-70 8,-70"/>
</g>
<g id="clust2" class="cluster">
<title>cluster_AppCommonModule_declarations</title>
<polygon fill="none" stroke="#000000" points="274,-78 274,-130 1354,-130 1354,-78 274,-78"/>
</g>
<g id="clust11" class="cluster">
<title>cluster_AppCommonModule_exports</title>
<polygon fill="none" stroke="#000000" points="414,-208 414,-260 1039,-260 1039,-208 414,-208"/>
</g>
<g id="clust13" class="cluster">
<title>cluster_AppCommonModule_providers</title>
<polygon fill="none" stroke="#000000" points="16,-78 16,-130 266,-130 266,-78 16,-78"/>
</g>
<!-- DisabledContentComponent -->
<g id="node1" class="node">
<title>DisabledContentComponent</title>
<polygon fill="#ffffb3" stroke="#000000" points="1345.9269,-122 1170.0731,-122 1170.0731,-86 1345.9269,-86 1345.9269,-122"/>
<text text-anchor="middle" x="1258" y="-99.8" font-family="Times,serif" font-size="14.00" fill="#000000">DisabledContentComponent</text>
</g>
<!-- AppCommonModule -->
<g id="node8" class="node">
<title>AppCommonModule</title>
<polygon fill="#8dd3c7" stroke="#000000" points="784.7744,-187 781.7744,-191 760.7744,-191 757.7744,-187 649.2256,-187 649.2256,-151 784.7744,-151 784.7744,-187"/>
<text text-anchor="middle" x="717" y="-164.8" font-family="Times,serif" font-size="14.00" fill="#000000">AppCommonModule</text>
</g>
<!-- DisabledContentComponent&#45;&gt;AppCommonModule -->
<g id="edge1" class="edge">
<title>DisabledContentComponent&#45;&gt;AppCommonModule</title>
<path fill="none" stroke="#000000" d="M1258,-122.1289C1258,-142.5724 1258,-173 1258,-173 1258,-173 794.9702,-173 794.9702,-173"/>
<polygon fill="#000000" stroke="#000000" points="794.9703,-169.5001 784.9702,-173 794.9702,-176.5001 794.9703,-169.5001"/>
</g>
<!-- DynamicStateComponent -->
<g id="node2" class="node">
<title>DynamicStateComponent</title>
<polygon fill="#ffffb3" stroke="#000000" points="1152.1428,-122 991.8572,-122 991.8572,-86 1152.1428,-86 1152.1428,-122"/>
<text text-anchor="middle" x="1072" y="-99.8" font-family="Times,serif" font-size="14.00" fill="#000000">DynamicStateComponent</text>
</g>
<!-- DynamicStateComponent&#45;&gt;AppCommonModule -->
<g id="edge2" class="edge">
<title>DynamicStateComponent&#45;&gt;AppCommonModule</title>
<path fill="none" stroke="#000000" d="M1011.375,-122.2667C1011.375,-140.5552 1011.375,-166 1011.375,-166 1011.375,-166 794.9052,-166 794.9052,-166"/>
<polygon fill="#000000" stroke="#000000" points="794.9052,-162.5001 784.9052,-166 794.9052,-169.5001 794.9052,-162.5001"/>
</g>
<!-- ErrorComponent -->
<g id="node3" class="node">
<title>ErrorComponent</title>
<polygon fill="#ffffb3" stroke="#000000" points="973.3669,-122 862.6331,-122 862.6331,-86 973.3669,-86 973.3669,-122"/>
<text text-anchor="middle" x="918" y="-99.8" font-family="Times,serif" font-size="14.00" fill="#000000">ErrorComponent</text>
</g>
<!-- ErrorComponent&#45;&gt;AppCommonModule -->
<g id="edge3" class="edge">
<title>ErrorComponent&#45;&gt;AppCommonModule</title>
<path fill="none" stroke="#000000" d="M937.9319,-122.0091C937.9319,-138.0494 937.9319,-159 937.9319,-159 937.9319,-159 794.7883,-159 794.7883,-159"/>
<polygon fill="#000000" stroke="#000000" points="794.7883,-155.5001 784.7883,-159 794.7882,-162.5001 794.7883,-155.5001"/>
</g>
<!-- FooterComponent -->
<g id="node4" class="node">
<title>FooterComponent</title>
<polygon fill="#ffffb3" stroke="#000000" points="844.8809,-122 727.1191,-122 727.1191,-86 844.8809,-86 844.8809,-122"/>
<text text-anchor="middle" x="786" y="-99.8" font-family="Times,serif" font-size="14.00" fill="#000000">FooterComponent</text>
</g>
<!-- FooterComponent&#45;&gt;AppCommonModule -->
<g id="edge4" class="edge">
<title>FooterComponent&#45;&gt;AppCommonModule</title>
<path fill="none" stroke="#000000" d="M755.9734,-122.1061C755.9734,-122.1061 755.9734,-140.991 755.9734,-140.991"/>
<polygon fill="#000000" stroke="#000000" points="752.4734,-140.9909 755.9734,-150.991 759.4734,-140.991 752.4734,-140.9909"/>
</g>
<!-- HeaderComponent -->
<g id="node5" class="node">
<title>HeaderComponent</title>
<polygon fill="#ffffb3" stroke="#000000" points="708.7437,-122 587.2563,-122 587.2563,-86 708.7437,-86 708.7437,-122"/>
<text text-anchor="middle" x="648" y="-99.8" font-family="Times,serif" font-size="14.00" fill="#000000">HeaderComponent</text>
</g>
<!-- HeaderComponent&#45;&gt;AppCommonModule -->
<g id="edge5" class="edge">
<title>HeaderComponent&#45;&gt;AppCommonModule</title>
<path fill="none" stroke="#000000" d="M678.9923,-122.1061C678.9923,-122.1061 678.9923,-140.991 678.9923,-140.991"/>
<polygon fill="#000000" stroke="#000000" points="675.4924,-140.9909 678.9923,-150.991 682.4924,-140.991 675.4924,-140.9909"/>
</g>
<!-- InFlowTipComponent -->
<g id="node6" class="node">
<title>InFlowTipComponent</title>
<polygon fill="#ffffb3" stroke="#000000" points="569.7162,-122 428.2838,-122 428.2838,-86 569.7162,-86 569.7162,-122"/>
<text text-anchor="middle" x="499" y="-99.8" font-family="Times,serif" font-size="14.00" fill="#000000">InFlowTipComponent</text>
</g>
<!-- InFlowTipComponent&#45;&gt;AppCommonModule -->
<g id="edge6" class="edge">
<title>InFlowTipComponent&#45;&gt;AppCommonModule</title>
<path fill="none" stroke="#000000" d="M520.3693,-122.0091C520.3693,-138.0494 520.3693,-159 520.3693,-159 520.3693,-159 639.0555,-159 639.0555,-159"/>
<polygon fill="#000000" stroke="#000000" points="639.0556,-162.5001 649.0555,-159 639.0555,-155.5001 639.0556,-162.5001"/>
</g>
<!-- LoadingComponent -->
<g id="node7" class="node">
<title>LoadingComponent</title>
<polygon fill="#ffffb3" stroke="#000000" points="409.9902,-122 282.0098,-122 282.0098,-86 409.9902,-86 409.9902,-122"/>
<text text-anchor="middle" x="346" y="-99.8" font-family="Times,serif" font-size="14.00" fill="#000000">LoadingComponent</text>
</g>
<!-- LoadingComponent&#45;&gt;AppCommonModule -->
<g id="edge7" class="edge">
<title>LoadingComponent&#45;&gt;AppCommonModule</title>
<path fill="none" stroke="#000000" d="M346,-122.2667C346,-140.5552 346,-166 346,-166 346,-166 638.9529,-166 638.9529,-166"/>
<polygon fill="#000000" stroke="#000000" points="638.9529,-169.5001 648.9529,-166 638.9528,-162.5001 638.9529,-169.5001"/>
</g>
<!-- DynamicStateComponent  -->
<g id="node9" class="node">
<title>DynamicStateComponent </title>
<polygon fill="#fb8072" stroke="#000000" points="1031.1425,-252 866.8575,-252 866.8575,-216 1031.1425,-216 1031.1425,-252"/>
<text text-anchor="middle" x="949" y="-229.8" font-family="Times,serif" font-size="14.00" fill="#000000">DynamicStateComponent </text>
</g>
<!-- AppCommonModule&#45;&gt;DynamicStateComponent  -->
<g id="edge8" class="edge">
<title>AppCommonModule&#45;&gt;DynamicStateComponent </title>
<path fill="none" stroke="#000000" stroke-dasharray="5,2" d="M784.9945,-180C837.9162,-180 902.4303,-180 902.4303,-180 902.4303,-180 902.4303,-205.7181 902.4303,-205.7181"/>
<polygon fill="#000000" stroke="#000000" points="898.9304,-205.718 902.4303,-215.7181 905.9304,-205.7181 898.9304,-205.718"/>
</g>
<!-- FooterComponent  -->
<g id="node10" class="node">
<title>FooterComponent </title>
<polygon fill="#fb8072" stroke="#000000" points="848.8814,-252 727.1186,-252 727.1186,-216 848.8814,-216 848.8814,-252"/>
<text text-anchor="middle" x="788" y="-229.8" font-family="Times,serif" font-size="14.00" fill="#000000">FooterComponent </text>
</g>
<!-- AppCommonModule&#45;&gt;FooterComponent  -->
<g id="edge9" class="edge">
<title>AppCommonModule&#45;&gt;FooterComponent </title>
<path fill="none" stroke="#000000" stroke-dasharray="5,2" d="M756.0984,-187.1061C756.0984,-187.1061 756.0984,-205.991 756.0984,-205.991"/>
<polygon fill="#000000" stroke="#000000" points="752.5984,-205.9909 756.0984,-215.991 759.5984,-205.991 752.5984,-205.9909"/>
</g>
<!-- HeaderComponent  -->
<g id="node11" class="node">
<title>HeaderComponent </title>
<polygon fill="#fb8072" stroke="#000000" points="709.7436,-252 584.2564,-252 584.2564,-216 709.7436,-216 709.7436,-252"/>
<text text-anchor="middle" x="647" y="-229.8" font-family="Times,serif" font-size="14.00" fill="#000000">HeaderComponent </text>
</g>
<!-- AppCommonModule&#45;&gt;HeaderComponent  -->
<g id="edge10" class="edge">
<title>AppCommonModule&#45;&gt;HeaderComponent </title>
<path fill="none" stroke="#000000" stroke-dasharray="5,2" d="M679.3673,-187.1061C679.3673,-187.1061 679.3673,-205.991 679.3673,-205.991"/>
<polygon fill="#000000" stroke="#000000" points="675.8674,-205.9909 679.3673,-215.991 682.8674,-205.991 675.8674,-205.9909"/>
</g>
<!-- InFlowTipComponent  -->
<g id="node12" class="node">
<title>InFlowTipComponent </title>
<polygon fill="#fb8072" stroke="#000000" points="566.2163,-252 421.7837,-252 421.7837,-216 566.2163,-216 566.2163,-252"/>
<text text-anchor="middle" x="494" y="-229.8" font-family="Times,serif" font-size="14.00" fill="#000000">InFlowTipComponent </text>
</g>
<!-- AppCommonModule&#45;&gt;InFlowTipComponent  -->
<g id="edge11" class="edge">
<title>AppCommonModule&#45;&gt;InFlowTipComponent </title>
<path fill="none" stroke="#000000" stroke-dasharray="5,2" d="M649.0944,-180C577.319,-180 474.3807,-180 474.3807,-180 474.3807,-180 474.3807,-205.7181 474.3807,-205.7181"/>
<polygon fill="#000000" stroke="#000000" points="470.8808,-205.718 474.3807,-215.7181 477.8808,-205.7181 470.8808,-205.718"/>
</g>
<!-- DynamicStateErrorHandler -->
<g id="node13" class="node">
<title>DynamicStateErrorHandler</title>
<ellipse fill="#fdb462" stroke="#000000" cx="141" cy="-104" rx="117.4316" ry="18"/>
<text text-anchor="middle" x="141" y="-99.8" font-family="Times,serif" font-size="14.00" fill="#000000">DynamicStateErrorHandler</text>
</g>
<!-- DynamicStateErrorHandler&#45;&gt;AppCommonModule -->
<g id="edge12" class="edge">
<title>DynamicStateErrorHandler&#45;&gt;AppCommonModule</title>
<path fill="none" stroke="#000000" d="M141,-122.1289C141,-142.5724 141,-173 141,-173 141,-173 638.9477,-173 638.9477,-173"/>
<polygon fill="#000000" stroke="#000000" points="638.9478,-176.5001 648.9477,-173 638.9477,-169.5001 638.9478,-176.5001"/>
</g>
</g>
</svg>
