<?xml version="1.0" encoding="UTF-8" standalone="no"?>
<!DOCTYPE svg PUBLIC "-//W3C//DTD SVG 1.1//EN"
 "http://www.w3.org/Graphics/SVG/1.1/DTD/svg11.dtd">
<!-- Generated by graphviz version 2.40.1 (20161225.0304)
 -->
<!-- Title: dependencies Pages: 1 -->
<svg width="1106pt" height="211pt"
 viewBox="0.00 0.00 1106.00 211.00" xmlns="http://www.w3.org/2000/svg" xmlns:xlink="http://www.w3.org/1999/xlink">
<g id="graph0" class="graph" transform="scale(1 1) rotate(0) translate(4 207)">
<title>dependencies</title>
<polygon fill="#ffffff" stroke="transparent" points="-4,4 -4,-207 1102,-207 1102,4 -4,4"/>
<text text-anchor="start" x="528.0091" y="-42.4" font-family="sans-serif" font-weight="bold" font-size="14.00" fill="#000000">Legend</text>
<polygon fill="#ffffb3" stroke="transparent" points="315,-10 315,-30 335,-30 335,-10 315,-10"/>
<text text-anchor="start" x="338.629" y="-15.4" font-family="sans-serif" font-size="14.00" fill="#000000"> &#160;Declarations</text>
<polygon fill="#8dd3c7" stroke="transparent" points="428,-10 428,-30 448,-30 448,-10 428,-10"/>
<text text-anchor="start" x="451.7251" y="-15.4" font-family="sans-serif" font-size="14.00" fill="#000000"> &#160;Module</text>
<polygon fill="#80b1d3" stroke="transparent" points="514,-10 514,-30 534,-30 534,-10 514,-10"/>
<text text-anchor="start" x="537.7812" y="-15.4" font-family="sans-serif" font-size="14.00" fill="#000000"> &#160;Bootstrap</text>
<polygon fill="#fdb462" stroke="transparent" points="611,-10 611,-30 631,-30 631,-10 611,-10"/>
<text text-anchor="start" x="634.6732" y="-15.4" font-family="sans-serif" font-size="14.00" fill="#000000"> &#160;Providers</text>
<polygon fill="#fb8072" stroke="transparent" points="707,-10 707,-30 727,-30 727,-10 707,-10"/>
<text text-anchor="start" x="730.7258" y="-15.4" font-family="sans-serif" font-size="14.00" fill="#000000"> &#160;Exports</text>
<g id="clust1" class="cluster">
<title>cluster_ProjectModule</title>
<polygon fill="none" stroke="#000000" stroke-dasharray="1,5" points="8,-70 8,-195 1090,-195 1090,-70 8,-70"/>
</g>
<g id="clust2" class="cluster">
<title>cluster_ProjectModule_declarations</title>
<polygon fill="none" stroke="#000000" points="544,-78 544,-130 1082,-130 1082,-78 544,-78"/>
</g>
<g id="clust6" class="cluster">
<title>cluster_ProjectModule_imports</title>
<polygon fill="none" stroke="#000000" points="222,-78 222,-130 536,-130 536,-78 222,-78"/>
</g>
<g id="clust9" class="cluster">
<title>cluster_ProjectModule_providers</title>
<polygon fill="none" stroke="#000000" points="16,-78 16,-130 214,-130 214,-78 16,-78"/>
</g>
<!-- ProjectDetailComponent -->
<g id="node1" class="node">
<title>ProjectDetailComponent</title>
<polygon fill="#ffffb3" stroke="#000000" points="1073.6937,-122 918.3063,-122 918.3063,-86 1073.6937,-86 1073.6937,-122"/>
<text text-anchor="middle" x="996" y="-99.8" font-family="Times,serif" font-size="14.00" fill="#000000">ProjectDetailComponent</text>
</g>
<!-- ProjectModule -->
<g id="node4" class="node">
<title>ProjectModule</title>
<polygon fill="#8dd3c7" stroke="#000000" points="592.7036,-187 589.7036,-191 568.7036,-191 565.7036,-187 493.2964,-187 493.2964,-151 592.7036,-151 592.7036,-187"/>
<text text-anchor="middle" x="543" y="-164.8" font-family="Times,serif" font-size="14.00" fill="#000000">ProjectModule</text>
</g>
<!-- ProjectDetailComponent&#45;&gt;ProjectModule -->
<g id="edge1" class="edge">
<title>ProjectDetailComponent&#45;&gt;ProjectModule</title>
<path fill="none" stroke="#000000" d="M996,-122.2843C996,-143.3211 996,-175 996,-175 996,-175 602.7748,-175 602.7748,-175"/>
<polygon fill="#000000" stroke="#000000" points="602.7748,-171.5001 592.7748,-175 602.7747,-178.5001 602.7748,-171.5001"/>
</g>
<!-- ProjectThumbnailComponent -->
<g id="node2" class="node">
<title>ProjectThumbnailComponent</title>
<polygon fill="#ffffb3" stroke="#000000" points="900.4255,-122 717.5745,-122 717.5745,-86 900.4255,-86 900.4255,-122"/>
<text text-anchor="middle" x="809" y="-99.8" font-family="Times,serif" font-size="14.00" fill="#000000">ProjectThumbnailComponent</text>
</g>
<!-- ProjectThumbnailComponent&#45;&gt;ProjectModule -->
<g id="edge2" class="edge">
<title>ProjectThumbnailComponent&#45;&gt;ProjectModule</title>
<path fill="none" stroke="#000000" d="M809,-122.0225C809,-139.3734 809,-163 809,-163 809,-163 602.7205,-163 602.7205,-163"/>
<polygon fill="#000000" stroke="#000000" points="602.7206,-159.5001 592.7205,-163 602.7205,-166.5001 602.7206,-159.5001"/>
</g>
<!-- ProjectsListComponent -->
<g id="node3" class="node">
<title>ProjectsListComponent</title>
<polygon fill="#ffffb3" stroke="#000000" points="700.2091,-122 551.7909,-122 551.7909,-86 700.2091,-86 700.2091,-122"/>
<text text-anchor="middle" x="626" y="-99.8" font-family="Times,serif" font-size="14.00" fill="#000000">ProjectsListComponent</text>
</g>
<!-- ProjectsListComponent&#45;&gt;ProjectModule -->
<g id="edge3" class="edge">
<title>ProjectsListComponent&#45;&gt;ProjectModule</title>
<path fill="none" stroke="#000000" d="M572.2486,-122.1061C572.2486,-122.1061 572.2486,-140.991 572.2486,-140.991"/>
<polygon fill="#000000" stroke="#000000" points="568.7487,-140.9909 572.2486,-150.991 575.7487,-140.991 568.7487,-140.9909"/>
</g>
<!-- AppCommonModule -->
<g id="node5" class="node">
<title>AppCommonModule</title>
<polygon fill="#8dd3c7" stroke="#000000" points="527.7744,-122 524.7744,-126 503.7744,-126 500.7744,-122 392.2256,-122 392.2256,-86 527.7744,-86 527.7744,-122"/>
<text text-anchor="middle" x="460" y="-99.8" font-family="Times,serif" font-size="14.00" fill="#000000">AppCommonModule</text>
</g>
<!-- AppCommonModule&#45;&gt;ProjectModule -->
<g id="edge4" class="edge">
<title>AppCommonModule&#45;&gt;ProjectModule</title>
<path fill="none" stroke="#000000" d="M510.6427,-122.1061C510.6427,-122.1061 510.6427,-140.991 510.6427,-140.991"/>
<polygon fill="#000000" stroke="#000000" points="507.1428,-140.9909 510.6427,-150.991 514.1428,-140.991 507.1428,-140.9909"/>
</g>
<!-- ProjectRoutingModule -->
<g id="node6" class="node">
<title>ProjectRoutingModule</title>
<polygon fill="#8dd3c7" stroke="#000000" points="374.3216,-122 371.3216,-126 350.3216,-126 347.3216,-122 229.6784,-122 229.6784,-86 374.3216,-86 374.3216,-122"/>
<text text-anchor="middle" x="302" y="-99.8" font-family="Times,serif" font-size="14.00" fill="#000000">ProjectRoutingModule</text>
</g>
<!-- ProjectRoutingModule&#45;&gt;ProjectModule -->
<g id="edge5" class="edge">
<title>ProjectRoutingModule&#45;&gt;ProjectModule</title>
<path fill="none" stroke="#000000" d="M302,-122.0225C302,-139.3734 302,-163 302,-163 302,-163 483.3569,-163 483.3569,-163"/>
<polygon fill="#000000" stroke="#000000" points="483.3569,-166.5001 493.3569,-163 483.3568,-159.5001 483.3569,-166.5001"/>
</g>
<!-- ProjectDetailService -->
<g id="node7" class="node">
<title>ProjectDetailService</title>
<ellipse fill="#fdb462" stroke="#000000" cx="115" cy="-104" rx="90.88" ry="18"/>
<text text-anchor="middle" x="115" y="-99.8" font-family="Times,serif" font-size="14.00" fill="#000000">ProjectDetailService</text>
</g>
<!-- ProjectDetailService&#45;&gt;ProjectModule -->
<g id="edge6" class="edge">
<title>ProjectDetailService&#45;&gt;ProjectModule</title>
<path fill="none" stroke="#000000" d="M115,-122.2843C115,-143.3211 115,-175 115,-175 115,-175 483.0653,-175 483.0653,-175"/>
<polygon fill="#000000" stroke="#000000" points="483.0654,-178.5001 493.0653,-175 483.0653,-171.5001 483.0654,-178.5001"/>
</g>
</g>
</svg>
