<?xml version="1.0" encoding="UTF-8" standalone="no"?>
<!DOCTYPE svg PUBLIC "-//W3C//DTD SVG 1.1//EN"
 "http://www.w3.org/Graphics/SVG/1.1/DTD/svg11.dtd">
<!-- Generated by graphviz version 2.40.1 (20161225.0304)
 -->
<!-- Title: dependencies Pages: 1 -->
<svg width="525pt" height="284pt"
 viewBox="0.00 0.00 525.00 284.00" xmlns="http://www.w3.org/2000/svg" xmlns:xlink="http://www.w3.org/1999/xlink">
<g id="graph0" class="graph" transform="scale(1 1) rotate(0) translate(4 280)">
<title>dependencies</title>
<polygon fill="#ffffff" stroke="transparent" points="-4,4 -4,-280 521,-280 521,4 -4,4"/>
<text text-anchor="start" x="237.5091" y="-42.4" font-family="sans-serif" font-weight="bold" font-size="14.00" fill="#000000">Legend</text>
<polygon fill="#ffffb3" stroke="transparent" points="24.5,-10 24.5,-30 44.5,-30 44.5,-10 24.5,-10"/>
<text text-anchor="start" x="48.129" y="-15.4" font-family="sans-serif" font-size="14.00" fill="#000000"> &#160;Declarations</text>
<polygon fill="#8dd3c7" stroke="transparent" points="137.5,-10 137.5,-30 157.5,-30 157.5,-10 137.5,-10"/>
<text text-anchor="start" x="161.2251" y="-15.4" font-family="sans-serif" font-size="14.00" fill="#000000"> &#160;Module</text>
<polygon fill="#80b1d3" stroke="transparent" points="223.5,-10 223.5,-30 243.5,-30 243.5,-10 223.5,-10"/>
<text text-anchor="start" x="247.2812" y="-15.4" font-family="sans-serif" font-size="14.00" fill="#000000"> &#160;Bootstrap</text>
<polygon fill="#fdb462" stroke="transparent" points="320.5,-10 320.5,-30 340.5,-30 340.5,-10 320.5,-10"/>
<text text-anchor="start" x="344.1732" y="-15.4" font-family="sans-serif" font-size="14.00" fill="#000000"> &#160;Providers</text>
<polygon fill="#fb8072" stroke="transparent" points="416.5,-10 416.5,-30 436.5,-30 436.5,-10 416.5,-10"/>
<text text-anchor="start" x="440.2258" y="-15.4" font-family="sans-serif" font-size="14.00" fill="#000000"> &#160;Exports</text>
<g id="clust1" class="cluster">
<title>cluster_InputsModule</title>
<polygon fill="none" stroke="#000000" stroke-dasharray="1,5" points="8,-70 8,-268 509,-268 509,-70 8,-70"/>
</g>
<g id="clust2" class="cluster">
<title>cluster_InputsModule_declarations</title>
<polygon fill="none" stroke="#000000" points="16,-78 16,-130 501,-130 501,-78 16,-78"/>
</g>
<g id="clust7" class="cluster">
<title>cluster_InputsModule_exports</title>
<polygon fill="none" stroke="#000000" points="87,-208 87,-260 431,-260 431,-208 87,-208"/>
</g>
<!-- ArrayInputComponent -->
<g id="node1" class="node">
<title>ArrayInputComponent</title>
<polygon fill="#ffffb3" stroke="#000000" points="492.5268,-122 349.4732,-122 349.4732,-86 492.5268,-86 492.5268,-122"/>
<text text-anchor="middle" x="421" y="-99.8" font-family="Times,serif" font-size="14.00" fill="#000000">ArrayInputComponent</text>
</g>
<!-- InputsModule -->
<g id="node4" class="node">
<title>InputsModule</title>
<polygon fill="#8dd3c7" stroke="#000000" points="313.0467,-187 310.0467,-191 289.0467,-191 286.0467,-187 218.9533,-187 218.9533,-151 313.0467,-151 313.0467,-187"/>
<text text-anchor="middle" x="266" y="-164.8" font-family="Times,serif" font-size="14.00" fill="#000000">InputsModule</text>
</g>
<!-- ArrayInputComponent&#45;&gt;InputsModule -->
<g id="edge1" class="edge">
<title>ArrayInputComponent&#45;&gt;InputsModule</title>
<path fill="none" stroke="#000000" d="M385.875,-122.1061C385.875,-141.3391 385.875,-169 385.875,-169 385.875,-169 323.3778,-169 323.3778,-169"/>
<polygon fill="#000000" stroke="#000000" points="323.3778,-165.5001 313.3778,-169 323.3777,-172.5001 323.3778,-165.5001"/>
</g>
<!-- AutoFocusDirective -->
<g id="node2" class="node">
<title>AutoFocusDirective</title>
<polygon fill="#ffffb3" stroke="#000000" points="330.5227,-122 201.4773,-122 201.4773,-86 330.5227,-86 330.5227,-122"/>
<text text-anchor="middle" x="266" y="-99.8" font-family="Times,serif" font-size="14.00" fill="#000000">AutoFocusDirective</text>
</g>
<!-- AutoFocusDirective&#45;&gt;InputsModule -->
<g id="edge2" class="edge">
<title>AutoFocusDirective&#45;&gt;InputsModule</title>
<path fill="none" stroke="#000000" d="M266,-122.1061C266,-122.1061 266,-140.991 266,-140.991"/>
<polygon fill="#000000" stroke="#000000" points="262.5001,-140.9909 266,-150.991 269.5001,-140.991 262.5001,-140.9909"/>
</g>
<!-- MultipleInputComponent -->
<g id="node3" class="node">
<title>MultipleInputComponent</title>
<polygon fill="#ffffb3" stroke="#000000" points="183.6052,-122 24.3948,-122 24.3948,-86 183.6052,-86 183.6052,-122"/>
<text text-anchor="middle" x="104" y="-99.8" font-family="Times,serif" font-size="14.00" fill="#000000">MultipleInputComponent</text>
</g>
<!-- MultipleInputComponent&#45;&gt;InputsModule -->
<g id="edge3" class="edge">
<title>MultipleInputComponent&#45;&gt;InputsModule</title>
<path fill="none" stroke="#000000" d="M139.125,-122.1061C139.125,-141.3391 139.125,-169 139.125,-169 139.125,-169 208.7564,-169 208.7564,-169"/>
<polygon fill="#000000" stroke="#000000" points="208.7565,-172.5001 218.7564,-169 208.7564,-165.5001 208.7565,-172.5001"/>
</g>
<!-- ArrayInputComponent  -->
<g id="node5" class="node">
<title>ArrayInputComponent </title>
<polygon fill="#fb8072" stroke="#000000" points="422.526,-252 275.474,-252 275.474,-216 422.526,-216 422.526,-252"/>
<text text-anchor="middle" x="349" y="-229.8" font-family="Times,serif" font-size="14.00" fill="#000000">ArrayInputComponent </text>
</g>
<!-- InputsModule&#45;&gt;ArrayInputComponent  -->
<g id="edge4" class="edge">
<title>InputsModule&#45;&gt;ArrayInputComponent </title>
<path fill="none" stroke="#000000" stroke-dasharray="5,2" d="M294.3799,-187.1061C294.3799,-187.1061 294.3799,-205.991 294.3799,-205.991"/>
<polygon fill="#000000" stroke="#000000" points="290.88,-205.9909 294.3799,-215.991 297.88,-205.991 290.88,-205.9909"/>
</g>
<!-- MultipleInputComponent  -->
<g id="node6" class="node">
<title>MultipleInputComponent </title>
<polygon fill="#fb8072" stroke="#000000" points="257.1057,-252 94.8943,-252 94.8943,-216 257.1057,-216 257.1057,-252"/>
<text text-anchor="middle" x="176" y="-229.8" font-family="Times,serif" font-size="14.00" fill="#000000">MultipleInputComponent </text>
</g>
<!-- InputsModule&#45;&gt;MultipleInputComponent  -->
<g id="edge5" class="edge">
<title>InputsModule&#45;&gt;MultipleInputComponent </title>
<path fill="none" stroke="#000000" stroke-dasharray="5,2" d="M238.0149,-187.1061C238.0149,-187.1061 238.0149,-205.991 238.0149,-205.991"/>
<polygon fill="#000000" stroke="#000000" points="234.515,-205.9909 238.0149,-215.991 241.515,-205.991 234.515,-205.9909"/>
</g>
</g>
</svg>
